<?xml version="1.0" encoding="UTF-8"?>
<svg id="Vector_Logo" data-name="Vector Logo" xmlns="http://www.w3.org/2000/svg" viewBox="0 0 300 300">
  <defs>
    <style>
      .cls-1 {
        fill: #f0a61f;
      }

      .cls-2 {
        fill: #0d3b5c;
      }
    </style>
  </defs>
  <path class="cls-2" d="M219.12,97.53c4,2.6,6.95,5.04,12.84,9.91,2.77,2.29,4.11,3.49,4.95,5.63,1.47,3.69.67,6.23-1.58,7.21-1.16.5-2.23,2.28-7.66-1.58-4.7-3.34-7.95-5.81-9.23-6.76-4.33-3.18-7.9-4.74-13.51-7.21-3.76-1.65-9.54-3.45-20.95-6.98-8.48-2.63-20.68-3.89-21.69-4.11-1.71-.37-3.41-.4-12.18-.49-1.93-.02-7.15.26-18.16,2.57-12.76,2.67-18.97,6.36-22.06,7.9-7.17,3.57-12.15,7.13-18.24,11.49-6.87,4.92-11.86,9.18-13.74,10.81-14.35,12.46-12.94,15.3-20.29,19.14-9.31,4.87-23.01,6.3-28.13,0-2.37-2.92-2.29-6.77-2.25-8.56.13-6.08,3.53-10.41,8.78-16.67,8.42-10.03,12.64-15.04,16.22-18.47,12.31-11.78,23.49-19,27.7-21.62,6.53-4.07,15.15-9.37,27.48-13.74,13.96-4.95,25.28-6.09,32.43-6.76,6.23-.58,29.32-2.37,58.78,5.41,0,0,21.82,5.76,44.59,22.3,3.33,2.42,7.76,6.02,7.21,9.91-.39,2.71-3.12,5.07-5.86,5.63-2.61.54-4.76-.66-11.49-5.18-8.81-5.92-7.26-4.47-10.14-6.15-6.49-3.79-5.9-4.35-16.88-7.81-2.47-.78-5.6-2.73-9.46-2.03-.52.09-2.2.56-2.41,1.79-.15.88.05,1.92,2.64,3.39"/>
  <path class="cls-2" d="M86.28,200.99c-4-2.6-6.95-5.04-12.84-9.91-2.77-2.29-4.11-3.49-4.95-5.63-1.47-3.69-.67-6.23,1.58-7.21,1.16-.5,2.23-2.28,7.66,1.58,4.7,3.34,7.95,5.81,9.23,6.76,4.33,3.18,7.9,4.74,13.51,7.21,3.76,1.65,9.54,3.45,20.95,6.98,8.48,2.63,20.68,3.89,21.69,4.11,1.71.37,3.41.4,12.18.49,1.93.02,7.15-.26,18.16-2.57,12.76-2.67,18.97-6.36,22.06-7.9,7.17-3.57,12.15-7.13,18.24-11.49,6.87-4.92,11.86-9.18,13.74-10.81,14.35-12.46,12.94-15.3,20.29-19.14,9.31-4.87,23.01-6.3,28.13,0,2.37,2.92,2.29,6.77,2.25,8.56-.13,6.08-3.53,10.41-8.78,16.67-8.42,10.03-12.64,15.04-16.22,18.47-12.31,11.78-23.49,19-27.7,21.62-6.53,4.07-15.15,9.37-27.48,13.74-13.96,4.95-25.28,6.09-32.43,6.76-6.23.58-29.32,2.37-58.78-5.41,0,0-21.82-5.76-44.59-22.3-3.33-2.42-7.76-6.02-7.21-9.91.39-2.71,3.12-5.07,5.86-5.63,2.61-.54,4.76.66,11.49,5.18,8.81,5.92,7.26,4.47,10.14,6.15,6.49,3.79,5.9,4.35,16.88,7.81,2.47.78,5.6,2.73,9.46,2.03.52-.09,2.2-.56,2.41-1.79.15-.88-.05-1.92-2.64-3.39"/>
  <path class="cls-1" d="M190.36,128.96c-.29,7.4-6.37,13.31-13.84,13.31s-13.86-6.21-13.86-13.86,6.21-13.86,13.86-13.86c.31,0,.61.03.91.05-7.11-5-15.84-7.95-25.27-7.95-23.92,0-43.31,18.93-43.31,42.28s19.39,42.28,43.31,42.28,43.31-18.93,43.31-42.28c0-7.22-1.86-14.01-5.12-19.95ZM129.68,174.05c-4.5,0-8.15-3.65-8.15-8.15s3.65-8.15,8.15-8.15,8.15,3.65,8.15,8.15-3.65,8.15-8.15,8.15Z"/>
</svg>